<svg width="348" height="188" viewBox="0 0 348 188" fill="none" xmlns="http://www.w3.org/2000/svg">
<rect width="348" height="188" fill="#090909"/>
<rect x="51.5" y="64" width="60" height="60" rx="30" fill="#C12DBB"/>
<rect x="62" y="74" width="40" height="40" rx="20" fill="#060606"/>
<path d="M122.116 105.064C121.855 105.064 121.649 104.989 121.5 104.84C121.351 104.728 121.351 104.635 121.5 104.56C122.321 104.411 123.031 104.112 123.628 103.664C124.225 103.179 124.711 102.581 125.084 101.872C125.868 100.565 126.633 99.2587 127.38 97.952C128.127 96.608 128.855 95.264 129.564 93.92L134.94 84.008C135.799 82.4773 136.545 81.0027 137.18 79.584C137.852 78.1653 138.375 77.1387 138.748 76.504C139.009 76.0187 139.457 75.5893 140.092 75.216C140.764 74.8053 141.417 74.488 142.052 74.264C141.828 74.264 141.604 74.264 141.38 74.264C141.156 74.2267 140.913 74.208 140.652 74.208C139.495 74.208 138.225 74.2827 136.844 74.432C135.5 74.544 134.175 74.7307 132.868 74.992C131.599 75.2533 130.479 75.608 129.508 76.056C128.537 76.504 127.884 77.0453 127.548 77.68C127.399 78.016 127.268 78.352 127.156 78.688C127.044 79.024 126.988 79.36 126.988 79.696C126.988 80.5547 127.287 81.1707 127.884 81.544C127.921 81.544 127.94 81.5813 127.94 81.656C127.94 81.7307 127.865 81.8053 127.716 81.88C127.604 81.9547 127.492 81.9733 127.38 81.936C127.044 81.7493 126.633 81.3013 126.148 80.592C125.663 79.8453 125.364 79.2293 125.252 78.744C125.14 78.296 125.084 77.8853 125.084 77.512C125.084 76.5413 125.401 75.7947 126.036 75.272C126.671 74.712 127.473 74.32 128.444 74.096C129.415 73.8347 130.404 73.6853 131.412 73.648C132.457 73.5733 133.372 73.536 134.156 73.536C135.351 73.536 136.769 73.536 138.412 73.536C140.055 73.4987 141.567 73.48 142.948 73.48C143.284 73.48 143.657 73.48 144.068 73.48C144.479 73.4427 144.908 73.424 145.356 73.424C146.364 73.424 147.409 73.48 148.492 73.592C149.575 73.704 150.564 73.9467 151.46 74.32C152.356 74.6933 153.047 75.272 153.532 76.056C154.017 76.8773 154.26 77.7733 154.26 78.744C154.26 79.6773 154.073 80.6107 153.7 81.544C153.327 82.4773 152.879 83.28 152.356 83.952C152.02 84.3627 151.628 84.7733 151.18 85.184C150.732 85.5947 150.228 85.9867 149.668 86.36C149.108 86.7333 148.492 87.088 147.82 87.424C147.185 87.7227 146.42 87.9653 145.524 88.152C145.487 88.152 145.449 88.208 145.412 88.32C145.412 88.432 145.449 88.488 145.524 88.488C145.711 88.5253 146.028 88.5813 146.476 88.656C146.961 88.6933 147.391 88.7493 147.764 88.824C149.071 89.0853 150.153 89.6453 151.012 90.504C151.908 91.3253 152.356 92.4453 152.356 93.864C152.356 95.4693 151.927 96.944 151.068 98.288C150.247 99.632 149.183 100.789 147.876 101.76C146.569 102.693 145.207 103.421 143.788 103.944C141.996 104.616 139.943 104.952 137.628 104.952C136.247 104.952 134.809 104.821 133.316 104.56C131.823 104.299 130.46 103.851 129.228 103.216C128.967 103.067 128.705 102.955 128.444 102.88C128.183 102.768 127.903 102.712 127.604 102.712C127.081 102.712 126.521 102.861 125.924 103.16C125.551 103.309 125.065 103.589 124.468 104C123.871 104.411 123.199 104.747 122.452 105.008C122.377 105.045 122.265 105.064 122.116 105.064ZM135.836 104.168C136.807 104.168 137.777 104.075 138.748 103.888C139.719 103.664 140.596 103.403 141.38 103.104C142.761 102.581 144.031 101.853 145.188 100.92C146.345 99.9493 147.279 98.8107 147.988 97.504C148.735 96.16 149.108 94.6667 149.108 93.024C149.108 91.9413 148.828 91.12 148.268 90.56C147.708 89.9627 146.999 89.552 146.14 89.328C145.281 89.104 144.385 88.992 143.452 88.992C142.743 88.992 142.071 89.0293 141.436 89.104C140.801 89.1787 140.223 89.272 139.7 89.384C138.655 89.5707 137.721 89.776 136.9 90C136.751 89.9253 136.769 89.7947 136.956 89.608C137.143 89.384 137.385 89.1413 137.684 88.88C138.02 88.6187 138.281 88.4133 138.468 88.264C138.543 88.1893 138.692 88.0773 138.916 87.928C139.177 87.7413 139.383 87.648 139.532 87.648C141.361 87.648 142.985 87.536 144.404 87.312C145.86 87.088 147.111 86.5467 148.156 85.688C149.201 84.792 150.06 83.4107 150.732 81.544C151.068 80.5733 151.236 79.6213 151.236 78.688C151.236 77.6053 150.975 76.672 150.452 75.888C149.929 75.0667 149.089 74.5813 147.932 74.432C147.783 74.3947 147.615 74.376 147.428 74.376C147.241 74.376 147.055 74.376 146.868 74.376C146.159 74.376 145.375 74.4693 144.516 74.656C143.695 74.8427 143.079 75.1973 142.668 75.72C141.735 76.952 140.839 78.352 139.98 79.92C139.121 81.4507 138.3 83.0187 137.516 84.624C136.732 86.192 135.985 87.6667 135.276 89.048C134.417 90.728 133.54 92.4267 132.644 94.144C131.748 95.8613 130.871 97.5973 130.012 99.352C129.788 99.8 129.676 100.229 129.676 100.64C129.676 101.387 130.143 102.115 131.076 102.824C131.711 103.309 132.439 103.664 133.26 103.888C134.119 104.075 134.977 104.168 135.836 104.168ZM165.321 105.904C164.015 105.904 162.633 105.699 161.177 105.288C159.759 104.915 158.489 104.28 157.369 103.384C156.287 102.488 155.559 101.293 155.185 99.8C155.148 99.6133 155.111 99.408 155.073 99.184C155.073 98.96 155.073 98.736 155.073 98.512C155.073 97.3547 155.335 96.2347 155.857 95.152C156.38 94.0693 157.015 93.248 157.761 92.688H157.817C157.892 92.688 157.985 92.7813 158.097 92.968C158.247 93.1173 158.247 93.2293 158.097 93.304C157.724 93.6773 157.444 94.1067 157.257 94.592C157.108 95.04 157.033 95.5253 157.033 96.048C157.033 96.7573 157.145 97.4853 157.369 98.232C157.631 98.9413 157.948 99.5573 158.321 100.08C159.255 101.387 160.543 102.432 162.185 103.216C163.865 103.963 165.508 104.336 167.113 104.336C169.316 104.336 171.015 103.683 172.209 102.376C173.441 101.069 174.057 99.464 174.057 97.56C174.057 96.4027 173.833 95.2453 173.385 94.088C172.788 92.4827 171.985 90.9147 170.977 89.384C170.007 87.816 169.111 86.2853 168.289 84.792C167.58 83.448 167.225 82.0853 167.225 80.704C167.225 79.248 167.673 77.848 168.569 76.504C169.465 75.3093 170.641 74.3573 172.097 73.648C173.591 72.9013 175.103 72.528 176.633 72.528C177.679 72.528 178.687 72.7147 179.657 73.088C180.628 73.4613 181.505 74.0773 182.289 74.936C182.513 75.272 182.625 75.7013 182.625 76.224C182.625 76.9707 182.476 77.5493 182.177 77.96C181.841 78.4453 181.468 79.08 181.057 79.864C180.647 80.648 180.404 81.1893 180.329 81.488C180.255 81.5253 180.068 81.6 179.769 81.712C179.508 81.7867 179.34 81.768 179.265 81.656C179.415 81.3573 179.62 80.816 179.881 80.032C180.143 79.248 180.273 78.5387 180.273 77.904C180.273 77.4933 180.255 77.0453 180.217 76.56C180.217 76.0373 179.975 75.5893 179.489 75.216C179.041 74.8053 178.463 74.4507 177.753 74.152C177.044 73.8533 176.185 73.704 175.177 73.704C173.124 73.704 171.556 74.3013 170.473 75.496C169.391 76.6907 168.849 77.9973 168.849 79.416C168.849 80.1253 168.999 80.8347 169.297 81.544C169.857 82.888 170.641 84.1573 171.649 85.352C172.657 86.5467 173.647 87.7787 174.617 89.048C175.625 90.28 176.409 91.624 176.969 93.08C177.343 94.0507 177.529 95.04 177.529 96.048C177.529 97.504 177.156 98.8293 176.409 100.024C175.7 101.219 174.729 102.264 173.497 103.16C172.303 104.019 170.996 104.691 169.577 105.176C168.159 105.661 166.74 105.904 165.321 105.904ZM186.499 106.184C185.342 106.184 184.24 105.848 183.195 105.176C182.15 104.541 181.366 103.552 180.843 102.208C180.656 101.723 180.526 101.2 180.451 100.64C180.376 100.08 180.339 99.5573 180.339 99.072V98.568C180.339 98.2693 180.358 97.9707 180.395 97.672C180.47 97.3733 180.638 97.224 180.899 97.224C180.974 97.224 181.011 97.2613 181.011 97.336C181.011 97.56 180.992 97.8027 180.955 98.064C180.955 98.288 180.955 98.512 180.955 98.736C180.955 100.491 181.384 101.816 182.243 102.712C183.139 103.608 184.24 104.056 185.547 104.056C186.854 104.056 188.123 103.683 189.355 102.936C190.587 102.189 191.726 101.237 192.771 100.08C193.816 98.9227 194.806 97.4853 195.739 95.768C196.672 94.0507 197.55 92.24 198.371 90.336C199.192 88.3947 199.958 86.4907 200.667 84.624C201.414 82.7573 202.104 81.096 202.739 79.64C203.112 78.7813 203.803 78.0533 204.811 77.456C205.856 76.8587 206.846 76.4293 207.779 76.168C207.518 76.1307 207.256 76.112 206.995 76.112C206.771 76.0747 206.547 76.0373 206.323 76L198.427 75.216C197.83 75.1413 197.046 75.0853 196.075 75.048C195.104 75.0107 194.078 74.992 192.995 74.992C191.539 74.992 190.046 75.0853 188.515 75.272C186.984 75.4213 185.603 75.7013 184.371 76.112C183.139 76.5227 182.243 77.1387 181.683 77.96C181.384 78.408 181.235 78.9307 181.235 79.528C181.235 80.1253 181.403 80.6853 181.739 81.208C182.075 81.7307 182.504 82.1413 183.027 82.44C183.102 82.5147 183.139 82.5707 183.139 82.608C183.139 82.72 183.046 82.8133 182.859 82.888C182.71 82.9627 182.542 82.9627 182.355 82.888C182.019 82.7013 181.627 82.384 181.179 81.936C180.731 81.488 180.32 81.0213 179.947 80.536C179.611 80.0133 179.368 79.584 179.219 79.248C178.995 78.6133 178.883 78.0533 178.883 77.568C178.883 76.672 179.182 75.944 179.779 75.384C180.414 74.7867 181.216 74.3387 182.187 74.04C183.195 73.704 184.259 73.48 185.379 73.368C186.536 73.2187 187.638 73.144 188.683 73.144C189.094 73.144 189.486 73.144 189.859 73.144C190.232 73.144 190.587 73.1627 190.923 73.2C192.118 73.2747 193.368 73.3493 194.675 73.424C195.982 73.4987 197.307 73.592 198.651 73.704L207.555 74.432C208.152 74.4693 209.048 74.544 210.243 74.656C211.475 74.7307 212.726 74.768 213.995 74.768C215.376 74.768 216.646 74.6933 217.803 74.544C218.96 74.3573 219.726 74.04 220.099 73.592C220.174 73.4427 220.286 73.4053 220.435 73.48C220.584 73.5547 220.622 73.648 220.547 73.76C220.435 74.208 220.286 74.544 220.099 74.768C219.912 75.1413 219.651 75.552 219.315 76C219.016 76.448 218.55 76.7467 217.915 76.896C217.766 76.9333 217.56 76.9707 217.299 77.008C217.038 77.008 216.758 77.008 216.459 77.008C215.6 77.008 214.555 76.952 213.323 76.84C212.128 76.6907 210.952 76.5413 209.795 76.392C208.675 76.5787 207.704 77.1013 206.883 77.96C206.062 78.8187 205.352 79.808 204.755 80.928C204.158 82.0107 203.635 83.0373 203.187 84.008C202.366 85.688 201.675 87.2373 201.115 88.656C200.592 90.0373 199.939 91.568 199.155 93.248C198.371 94.9653 197.55 96.664 196.691 98.344C195.832 99.9867 194.787 101.48 193.555 102.824C192.622 103.832 191.539 104.635 190.307 105.232C189.075 105.867 187.806 106.184 186.499 106.184ZM215.375 104.672C213.881 104.672 212.388 104.541 210.895 104.28C209.401 104.056 208.039 103.627 206.807 102.992C205.612 102.357 204.641 101.461 203.895 100.304C203.148 99.1467 202.775 97.6533 202.775 95.824C202.775 94.2933 203.073 92.5387 203.671 90.56C204.305 88.544 205.239 86.528 206.471 84.512C207.703 82.4587 209.233 80.5547 211.063 78.8C212.929 77.0453 215.076 75.6453 217.503 74.6C219.967 73.5173 222.729 72.976 225.791 72.976C230.271 72.976 233.537 73.704 235.591 75.16C237.644 76.5787 238.671 78.8 238.671 81.824C238.671 84.7733 238.055 87.6107 236.823 90.336C235.628 93.0613 233.948 95.5067 231.783 97.672C229.655 99.8373 227.191 101.555 224.391 102.824C221.591 104.056 218.585 104.672 215.375 104.672ZM214.927 103.832C217.204 103.832 219.369 103.403 221.423 102.544C223.513 101.648 225.399 100.453 227.079 98.96C228.796 97.4293 230.271 95.6933 231.503 93.752C232.772 91.8107 233.743 89.776 234.415 87.648C235.124 85.52 235.479 83.4107 235.479 81.32C235.479 79.0053 234.751 77.176 233.295 75.832C231.839 74.488 229.375 73.816 225.903 73.816C223.924 73.816 221.945 74.32 219.967 75.328C218.025 76.2987 216.196 77.6053 214.479 79.248C212.799 80.8907 211.287 82.7013 209.943 84.68C208.636 86.6587 207.609 88.656 206.863 90.672C206.116 92.688 205.743 94.5733 205.743 96.328C205.743 98.68 206.433 100.528 207.815 101.872C209.233 103.179 211.604 103.832 214.927 103.832ZM262.065 105.288C261.131 105.288 260.179 104.989 259.209 104.392C258.275 103.832 257.323 102.917 256.353 101.648C255.158 100.005 254.15 98.4373 253.329 96.944C252.507 95.4507 251.835 94.144 251.313 93.024C250.827 91.904 250.454 91.1013 250.193 90.616C250.193 90.616 250.286 90.504 250.473 90.28C250.659 90.0187 250.883 89.776 251.145 89.552C251.443 89.2907 251.686 89.16 251.873 89.16C253.627 89.16 255.195 89.1413 256.577 89.104C257.995 89.0293 259.246 88.8053 260.329 88.432C261.449 88.0213 262.438 87.3307 263.297 86.36C264.155 85.3893 264.883 84.008 265.481 82.216C265.667 81.768 265.779 81.32 265.817 80.872C265.891 80.3867 265.929 79.92 265.929 79.472C265.929 78.2027 265.611 77.0827 264.977 76.112C264.342 75.1413 263.427 74.5813 262.233 74.432C262.083 74.3947 261.915 74.376 261.729 74.376C261.542 74.376 261.355 74.376 261.169 74.376C260.459 74.376 259.675 74.4693 258.817 74.656C257.995 74.8427 257.379 75.1973 256.969 75.72C256.035 76.952 255.139 78.352 254.281 79.92C253.422 81.4507 252.601 83.0187 251.817 84.624C251.033 86.192 250.286 87.6667 249.577 89.048C249.39 89.4213 249.035 90.0933 248.513 91.064C247.99 91.9973 247.411 93.08 246.777 94.312C246.142 95.5067 245.545 96.7013 244.985 97.896C244.425 99.0907 243.977 100.155 243.641 101.088C243.342 102.021 243.267 102.656 243.417 102.992C243.454 103.029 243.473 103.085 243.473 103.16C243.473 103.272 243.417 103.328 243.305 103.328C243.006 103.328 242.707 103.253 242.409 103.104C242.11 102.955 241.755 102.88 241.345 102.88C240.971 102.88 240.598 102.973 240.225 103.16C239.851 103.309 239.366 103.589 238.769 104C238.171 104.411 237.499 104.747 236.753 105.008C236.678 105.045 236.566 105.064 236.417 105.064C236.155 105.064 235.95 104.989 235.801 104.84C235.651 104.728 235.651 104.635 235.801 104.56C236.622 104.411 237.331 104.112 237.929 103.664C238.526 103.179 239.011 102.581 239.385 101.872C240.169 100.565 240.934 99.2587 241.681 97.952C242.465 96.608 243.211 95.264 243.921 93.92C244.779 92.2773 245.657 90.6347 246.553 88.992C247.449 87.312 248.345 85.6507 249.241 84.008C250.099 82.4773 250.865 81.0027 251.537 79.584C252.209 78.1653 252.713 77.1387 253.049 76.504C253.31 76.0187 253.758 75.5893 254.393 75.216C255.065 74.8053 255.718 74.488 256.353 74.264C256.129 74.264 255.905 74.264 255.681 74.264C255.457 74.2267 255.214 74.208 254.953 74.208C253.795 74.208 252.526 74.2827 251.145 74.432C249.801 74.544 248.475 74.7307 247.169 74.992C245.899 75.2533 244.779 75.608 243.809 76.056C242.838 76.504 242.185 77.0453 241.849 77.68C241.699 78.016 241.569 78.352 241.457 78.688C241.345 79.024 241.289 79.36 241.289 79.696C241.289 80.5547 241.587 81.1707 242.185 81.544C242.222 81.544 242.241 81.5813 242.241 81.656C242.241 81.7307 242.166 81.8053 242.017 81.88C241.905 81.9547 241.811 81.9733 241.737 81.936C241.363 81.7493 240.934 81.3013 240.449 80.592C240.001 79.8453 239.702 79.2293 239.553 78.744C239.441 78.296 239.385 77.8853 239.385 77.512C239.385 76.5413 239.702 75.7947 240.337 75.272C240.971 74.712 241.774 74.32 242.745 74.096C243.715 73.8347 244.705 73.6853 245.713 73.648C246.758 73.5733 247.673 73.536 248.457 73.536C249.651 73.536 251.07 73.536 252.713 73.536C254.355 73.4987 255.867 73.48 257.249 73.48C257.585 73.48 257.958 73.48 258.369 73.48C258.779 73.4427 259.209 73.424 259.657 73.424C260.665 73.424 261.71 73.48 262.793 73.592C263.875 73.704 264.865 73.9467 265.761 74.32C266.657 74.6933 267.347 75.272 267.833 76.056C268.467 77.1013 268.785 78.296 268.785 79.64C268.785 81.6933 268.243 83.4107 267.161 84.792C266.787 85.2773 266.377 85.744 265.929 86.192C265.481 86.64 264.958 87.0693 264.361 87.48C263.39 88.152 262.233 88.7307 260.889 89.216C259.545 89.664 258.145 90 256.689 90.224C255.27 90.448 253.963 90.5973 252.769 90.672C253.254 91.7173 253.982 93.1173 254.953 94.872C255.961 96.6267 257.174 98.3813 258.593 100.136C259.339 101.069 260.105 101.723 260.889 102.096C261.673 102.469 262.438 102.656 263.185 102.656C264.379 102.656 265.499 102.301 266.545 101.592C267.627 100.883 268.598 100.061 269.457 99.128C270.353 98.1573 271.062 97.3173 271.585 96.608C271.697 96.4213 271.79 96.328 271.865 96.328C271.977 96.328 272.033 96.44 272.033 96.664C272.033 96.9627 271.921 97.2613 271.697 97.56C269.979 99.912 268.337 101.797 266.769 103.216C265.201 104.597 263.633 105.288 262.065 105.288ZM282.424 104.672C281.23 104.672 280.016 104.635 278.784 104.56C277.552 104.523 276.339 104.429 275.144 104.28C272.494 104.056 271.168 103.197 271.168 101.704C271.168 100.957 271.467 100.061 272.064 99.016C273.483 96.44 274.939 93.8827 276.432 91.344C277.926 88.768 279.4 86.192 280.856 83.616C281.304 82.7947 281.883 81.768 282.592 80.536C283.302 79.304 284.011 78.128 284.72 77.008C285.056 76.4853 285.542 75.9627 286.176 75.44C286.811 74.88 287.464 74.5253 288.136 74.376C287.352 74.4133 286.344 74.4693 285.112 74.544C283.918 74.6187 282.686 74.768 281.416 74.992C280.184 75.1787 279.064 75.496 278.056 75.944C277.086 76.3547 276.395 76.9333 275.984 77.68C275.835 78.016 275.704 78.352 275.592 78.688C275.48 79.024 275.424 79.36 275.424 79.696C275.424 80.5547 275.723 81.1707 276.32 81.544C276.358 81.544 276.376 81.5813 276.376 81.656C276.376 81.7307 276.302 81.8053 276.152 81.88C276.04 81.9547 275.928 81.9733 275.816 81.936C275.48 81.7493 275.07 81.3013 274.584 80.592C274.099 79.8453 273.8 79.2293 273.688 78.744C273.576 78.296 273.52 77.8853 273.52 77.512C273.52 76.5413 273.838 75.7947 274.472 75.272C275.107 74.712 275.91 74.32 276.88 74.096C277.851 73.8347 278.84 73.6853 279.848 73.648C280.856 73.5733 281.752 73.536 282.536 73.536C284.515 73.536 286.494 73.5173 288.472 73.48C290.451 73.4053 292.411 73.368 294.352 73.368C295.211 73.368 296.051 73.368 296.872 73.368C297.731 73.368 298.571 73.4053 299.392 73.48C300.326 73.5173 300.96 73.704 301.296 74.04C301.67 74.376 301.856 74.7867 301.856 75.272C301.856 75.8693 301.651 76.56 301.24 77.344C300.867 78.0907 300.512 78.7813 300.176 79.416C300.027 79.7147 299.784 79.9387 299.448 80.088C299.112 80.2 298.982 80.088 299.056 79.752C299.243 79.0053 299.336 78.2587 299.336 77.512C299.336 76.84 299.206 76.2427 298.944 75.72C298.72 75.16 298.272 74.768 297.6 74.544C296.966 74.3573 295.976 74.264 294.632 74.264C294.147 74.264 293.643 74.2827 293.12 74.32C292.635 74.32 292.131 74.3387 291.608 74.376C290.115 74.488 289.107 74.88 288.584 75.552C287.352 77.2693 286.158 79.136 285 81.152C283.88 83.1307 282.798 85.016 281.752 86.808C281.715 86.8827 281.696 86.976 281.696 87.088C281.696 87.312 281.864 87.424 282.2 87.424C283.507 87.424 284.907 87.4427 286.4 87.48C287.931 87.5173 289.275 87.5173 290.432 87.48C290.694 87.4427 291.086 87.4053 291.608 87.368C292.168 87.3307 292.728 87.256 293.288 87.144C293.886 87.032 294.334 86.9013 294.632 86.752C294.819 86.64 294.931 86.584 294.968 86.584C295.192 86.584 295.192 86.808 294.968 87.256C294.782 87.6667 294.446 88.096 293.96 88.544C293.512 88.9547 292.99 89.16 292.392 89.16C290.563 89.16 289.014 89.1227 287.744 89.048C286.512 88.9733 285.131 88.936 283.6 88.936C283.227 88.936 282.835 88.936 282.424 88.936C282.014 88.936 281.566 88.9547 281.08 88.992C280.707 89.0293 280.446 89.1787 280.296 89.44C279.923 90.112 279.587 90.728 279.288 91.288C279.027 91.848 278.691 92.5013 278.28 93.248C277.982 93.808 277.608 94.536 277.16 95.432C276.75 96.2907 276.376 97.1867 276.04 98.12C275.704 99.016 275.536 99.8 275.536 100.472C275.536 101.629 276.078 102.432 277.16 102.88C278.243 103.291 279.568 103.515 281.136 103.552C283.302 103.552 285.43 103.347 287.52 102.936C289.648 102.488 291.627 101.76 293.456 100.752C295.323 99.7067 296.947 98.3067 298.328 96.552C298.403 96.4773 298.459 96.44 298.496 96.44C298.608 96.44 298.683 96.552 298.72 96.776C298.758 96.9627 298.739 97.112 298.664 97.224C297.507 98.6427 296.387 100.024 295.304 101.368C294.222 102.675 293.139 103.496 292.056 103.832C291.272 104.056 290.003 104.243 288.248 104.392C286.494 104.579 284.552 104.672 282.424 104.672Z" fill="#3A3FC5"/>
</svg>
