<svg width="60" height="60" viewBox="0 0 60 60" fill="none" xmlns="http://www.w3.org/2000/svg">
<rect width="60" height="60" rx="30" fill="#C12DBB"/>
<rect x="10.5" y="10" width="40" height="40" rx="20" fill="#060606"/>
<path d="M19.2095 38.76C19.0229 38.76 18.8762 38.7067 18.7695 38.6C18.6629 38.52 18.6629 38.4533 18.7695 38.4C19.3562 38.2933 19.8629 38.08 20.2895 37.76C20.7162 37.4133 21.0629 36.9867 21.3295 36.48C21.8895 35.5467 22.4362 34.6133 22.9695 33.68C23.5029 32.72 24.0229 31.76 24.5295 30.8L28.3695 23.72C28.9829 22.6267 29.5162 21.5733 29.9695 20.56C30.4495 19.5467 30.8229 18.8133 31.0895 18.36C31.2762 18.0133 31.5962 17.7067 32.0495 17.44C32.5295 17.1467 32.9962 16.92 33.4495 16.76C33.2895 16.76 33.1295 16.76 32.9695 16.76C32.8095 16.7333 32.6362 16.72 32.4495 16.72C31.6229 16.72 30.7162 16.7733 29.7295 16.88C28.7695 16.96 27.8229 17.0933 26.8895 17.28C25.9829 17.4667 25.1829 17.72 24.4895 18.04C23.7962 18.36 23.3295 18.7467 23.0895 19.2C22.9829 19.44 22.8895 19.68 22.8095 19.92C22.7295 20.16 22.6895 20.4 22.6895 20.64C22.6895 21.2533 22.9029 21.6933 23.3295 21.96C23.3562 21.96 23.3695 21.9867 23.3695 22.04C23.3695 22.0933 23.3162 22.1467 23.2095 22.2C23.1295 22.2533 23.0495 22.2667 22.9695 22.24C22.7295 22.1067 22.4362 21.7867 22.0895 21.28C21.7429 20.7467 21.5295 20.3067 21.4495 19.96C21.3695 19.64 21.3295 19.3467 21.3295 19.08C21.3295 18.3867 21.5562 17.8533 22.0095 17.48C22.4629 17.08 23.0362 16.8 23.7295 16.64C24.4229 16.4533 25.1295 16.3467 25.8495 16.32C26.5962 16.2667 27.2495 16.24 27.8095 16.24C28.6629 16.24 29.6762 16.24 30.8495 16.24C32.0229 16.2133 33.1029 16.2 34.0895 16.2C34.3295 16.2 34.5962 16.2 34.8895 16.2C35.1829 16.1733 35.4895 16.16 35.8095 16.16C36.5295 16.16 37.2762 16.2 38.0495 16.28C38.8229 16.36 39.5295 16.5333 40.1695 16.8C40.8095 17.0667 41.3029 17.48 41.6495 18.04C41.9962 18.6267 42.1695 19.2667 42.1695 19.96C42.1695 20.6267 42.0362 21.2933 41.7695 21.96C41.5029 22.6267 41.1829 23.2 40.8095 23.68C40.5695 23.9733 40.2895 24.2667 39.9695 24.56C39.6495 24.8533 39.2895 25.1333 38.8895 25.4C38.4895 25.6667 38.0495 25.92 37.5695 26.16C37.1162 26.3733 36.5695 26.5467 35.9295 26.68C35.9029 26.68 35.8762 26.72 35.8495 26.8C35.8495 26.88 35.8762 26.92 35.9295 26.92C36.0629 26.9467 36.2895 26.9867 36.6095 27.04C36.9562 27.0667 37.2629 27.1067 37.5295 27.16C38.4629 27.3467 39.2362 27.7467 39.8495 28.36C40.4895 28.9467 40.8095 29.7467 40.8095 30.76C40.8095 31.9067 40.5029 32.96 39.8895 33.92C39.3029 34.88 38.5429 35.7067 37.6095 36.4C36.6762 37.0667 35.7029 37.5867 34.6895 37.96C33.4095 38.44 31.9429 38.68 30.2895 38.68C29.3029 38.68 28.2762 38.5867 27.2095 38.4C26.1429 38.2133 25.1695 37.8933 24.2895 37.44C24.1029 37.3333 23.9162 37.2533 23.7295 37.2C23.5429 37.12 23.3429 37.08 23.1295 37.08C22.7562 37.08 22.3562 37.1867 21.9295 37.4C21.6629 37.5067 21.3162 37.7067 20.8895 38C20.4629 38.2933 19.9829 38.5333 19.4495 38.72C19.3962 38.7467 19.3162 38.76 19.2095 38.76ZM29.0095 38.12C29.7029 38.12 30.3962 38.0533 31.0895 37.92C31.7829 37.76 32.4095 37.5733 32.9695 37.36C33.9562 36.9867 34.8629 36.4667 35.6895 35.8C36.5162 35.1067 37.1829 34.2933 37.6895 33.36C38.2229 32.4 38.4895 31.3333 38.4895 30.16C38.4895 29.3867 38.2895 28.8 37.8895 28.4C37.4895 27.9733 36.9829 27.68 36.3695 27.52C35.7562 27.36 35.1162 27.28 34.4495 27.28C33.9429 27.28 33.4629 27.3067 33.0095 27.36C32.5562 27.4133 32.1429 27.48 31.7695 27.56C31.0229 27.6933 30.3562 27.84 29.7695 28C29.6629 27.9467 29.6762 27.8533 29.8095 27.72C29.9429 27.56 30.1162 27.3867 30.3295 27.2C30.5695 27.0133 30.7562 26.8667 30.8895 26.76C30.9429 26.7067 31.0495 26.6267 31.2095 26.52C31.3962 26.3867 31.5429 26.32 31.6495 26.32C32.9562 26.32 34.1162 26.24 35.1295 26.08C36.1695 25.92 37.0629 25.5333 37.8095 24.92C38.5562 24.28 39.1695 23.2933 39.6495 21.96C39.8895 21.2667 40.0095 20.5867 40.0095 19.92C40.0095 19.1467 39.8229 18.48 39.4495 17.92C39.0762 17.3333 38.4762 16.9867 37.6495 16.88C37.5429 16.8533 37.4229 16.84 37.2895 16.84C37.1562 16.84 37.0229 16.84 36.8895 16.84C36.3829 16.84 35.8229 16.9067 35.2095 17.04C34.6229 17.1733 34.1829 17.4267 33.8895 17.8C33.2229 18.68 32.5829 19.68 31.9695 20.8C31.3562 21.8933 30.7695 23.0133 30.2095 24.16C29.6495 25.28 29.1162 26.3333 28.6095 27.32C27.9962 28.52 27.3695 29.7333 26.7295 30.96C26.0895 32.1867 25.4629 33.4267 24.8495 34.68C24.6895 35 24.6095 35.3067 24.6095 35.6C24.6095 36.1333 24.9429 36.6533 25.6095 37.16C26.0629 37.5067 26.5829 37.76 27.1695 37.92C27.7829 38.0533 28.3962 38.12 29.0095 38.12Z" fill="white"/>
</svg>
